<svg width="104" height="104" viewBox="0 0 104 104" fill="none" xmlns="http://www.w3.org/2000/svg">
<g clip-path="url(#clip0_24_527)">
<path d="M30.5 73.25C28.1794 73.25 25.9538 72.3281 24.3128 70.6872C22.6719 69.0462 21.75 66.8206 21.75 64.5C21.75 62.1794 22.6719 59.9538 24.3128 58.3128C25.9538 56.6719 28.1794 55.75 30.5 55.75C32.8206 55.75 35.0462 56.6719 36.6872 58.3128C38.3281 59.9538 39.25 62.1794 39.25 64.5C39.25 66.8206 38.3281 69.0462 36.6872 70.6872C35.0462 72.3281 32.8206 73.25 30.5 73.25ZM30.5 52C27.1848 52 24.0054 53.317 21.6612 55.6612C19.317 58.0054 18 61.1848 18 64.5C18 67.8152 19.317 70.9946 21.6612 73.3388C24.0054 75.683 27.1848 77 30.5 77C33.8152 77 36.9946 75.683 39.3388 73.3388C41.683 70.9946 43 67.8152 43 64.5C43 61.1848 41.683 58.0054 39.3388 55.6612C36.9946 53.317 33.8152 52 30.5 52ZM55 47H65.5V42.5H57.5L52.65 34.325C51.925 33.075 50.5 32.25 49 32.25C47.825 32.25 46.75 32.725 46 33.5L36.75 42.725C35.975 43.5 35.5 44.5 35.5 45.75C35.5 47.325 36.325 48.65 37.625 49.425L46 54.5V67H50.5V50.75L44.875 46.625L50.675 40.75M65.5 73.25C63.1794 73.25 60.9538 72.3281 59.3128 70.6872C57.6719 69.0462 56.75 66.8206 56.75 64.5C56.75 62.1794 57.6719 59.9538 59.3128 58.3128C60.9538 56.6719 63.1794 55.75 65.5 55.75C67.8206 55.75 70.0462 56.6719 71.6872 58.3128C73.3281 59.9538 74.25 62.1794 74.25 64.5C74.25 66.8206 73.3281 69.0462 71.6872 70.6872C70.0462 72.3281 67.8206 73.25 65.5 73.25ZM65.5 52C62.1848 52 59.0054 53.317 56.6612 55.6612C54.317 58.0054 53 61.1848 53 64.5C53 67.8152 54.317 70.9946 56.6612 73.3388C59.0054 75.683 62.1848 77 65.5 77C67.1415 77 68.767 76.6767 70.2835 76.0485C71.8001 75.4203 73.1781 74.4996 74.3388 73.3388C75.4996 72.1781 76.4203 70.8001 77.0485 69.2835C77.6767 67.767 78 66.1415 78 64.5C78 62.8585 77.6767 61.233 77.0485 59.7165C76.4203 58.1999 75.4996 56.8219 74.3388 55.6612C73.1781 54.5004 71.8001 53.5797 70.2835 52.9515C68.767 52.3233 67.1415 52 65.5 52ZM58 34C60.5 34 62.5 32 62.5 29.5C62.5 27 60.5 25 58 25C55.5 25 53.5 27 53.5 29.5C53.5 32 55.5 34 58 34Z" fill="black"/>
</g>
<circle cx="52" cy="52" r="51.5" stroke="black"/>
<defs>
<clipPath id="clip0_24_527">
<rect width="60" height="60" fill="white" transform="translate(18 22)"/>
</clipPath>
</defs>
</svg>
